<?xml version="1.0" encoding="UTF-8"?>
<svg id="Capa_1" xmlns="http://www.w3.org/2000/svg" version="1.1" viewBox="0 0 97 97">
  <!-- Generator: Adobe Illustrator 30.0.0, SVG Export Plug-In . SVG Version: 2.1.1 Build 123)  -->
  <path d="M13.3,17.9h23.1c5.8,0,10.4.8,13.9,2.4,3.5,1.6,6,3.8,7.5,6.6,1.5,2.8,2.3,6,2.3,9.6s-.8,7.3-2.4,10.1c-1.6,2.9-4.1,5.1-7.4,6.9l12.8,25.6h-14.2l-10.7-22.6c-.5,0-.9,0-1.4,0-.5,0-.9,0-1.4,0h-9.3v22.6h-12.9V17.9ZM47.1,37c0-2.9-.8-5-2.5-6.5-1.7-1.5-4.7-2.2-9-2.2h-9.4v17.8h9.9c4.2,0,7.1-.8,8.7-2.4,1.5-1.6,2.3-3.8,2.3-6.8Z"/>
  <path d="M70.9,65h12.7v14.1h-12.7v-14.1Z"/>
</svg>